<svg xmlns="http://www.w3.org/2000/svg" viewBox="0 0 64 64"><title>Avatar-33</title><g id="Business_Man" data-name="Business Man"><path d="M55.26,42.26,39,35l-5,7H30l-5-7L8.7,42.37A8.012,8.012,0,0,0,4,49.66V62.25a.75.75,0,0,0,.75.75h54.5a.75.75,0,0,0,.75-.75V49.57A8.012,8.012,0,0,0,55.26,42.26Z" style="fill:#494a59"/><path d="M39,28.14V36l-5,7H30l-5-7V28.14a10,10,0,0,0,14,0Z" style="fill:#eac2b9"/><path d="M18,19.542V8a4,4,0,0,1,4-4,3,3,0,0,1,3-3h8.81a16.817,16.817,0,0,1,9.77,2.98c2.43,1.75,4.6,4.31,4.41,7.88-.125,2.3-.939,3.681-3.091,7.556Z" style="fill:#494a59"/><polygon points="29 63 23 63 17 52 20 49 16 47 12.52 40.64 20.11 37.21 27.32 58.12 29 63" style="fill:#343544"/><polygon points="36.68 58.12 35 63 29 63 27.32 58.12 29 49 35 49 36.68 58.12" style="fill:#494a59"/><polygon points="37 43.8 35 49 29 49 27 43.8 30 42 34 42 37 43.8" style="fill:#343544"/><polygon points="43.9 37.19 39 45 37 43.8 34 42 39 35 43.9 37.19" style="fill:#d0dbf7"/><polygon points="30 42 27 43.8 25 45 20.11 37.21 25 35 30 42" style="fill:#d0dbf7"/><polygon points="29 49 27.32 58.12 20.11 37.21 25 45 27 43.8 29 49" style="fill:#e6ecff"/><polygon points="43.9 37.19 36.68 58.12 35 49 37 43.8 39 45 43.9 37.19" style="fill:#e6ecff"/><path d="M47,20v2a2,2,0,0,1-2,2H40.8a10.048,10.048,0,0,0,.2-2V18h4A2.006,2.006,0,0,1,47,20Z" style="fill:#eac2b9"/><path d="M23.2,24H19a2,2,0,0,1-2-2V20a2.006,2.006,0,0,1,2-2h4v4A10.048,10.048,0,0,0,23.2,24Z" style="fill:#eac2b9"/><path d="M42,15v7A10,10,0,0,1,32,32h0A10,10,0,0,1,22,22V13s2.222.143,6-3C28,10,32,15,42,15Z" style="fill:#ffddd4"/><polygon points="48 47 44 49 47 52 41 63 35 63 36.68 58.12 43.9 37.19 51.51 40.59 48 47" style="fill:#343544"/><path d="M53.75,52V63h-1.5V52a.75.75,0,0,1,1.5,0Z" style="fill:#343544"/><line x1="20.11" y1="37.21" x2="20.1" y2="37.19"/><line x1="20.11" y1="37.21" x2="20.1" y2="37.19"/><path d="M11.75,52V63h-1.5V52a.75.75,0,0,1,1.5,0Z" style="fill:#343544"/></g></svg>