<svg xmlns="http://www.w3.org/2000/svg" viewBox="0 0 64 64"><title>Avatar-2</title><g id="Business_Man-3" data-name="Business Man"><path d="M45,8v9.27A2,2,0,0,0,44,17H41V13s-2,0-5.4-3c0,0-3.6,4-12.6,4v3H20a2,2,0,0,0-1,.27V8a7,7,0,0,1,7-7H38a3,3,0,0,1,3,3A4,4,0,0,1,45,8Z" style="fill:#494a59"/><path d="M38,26.7V34l-4,5H30l-4-5V26.7a8.976,8.976,0,0,0,12,0Z" style="fill:#eac2b9"/><path d="M58,47.17V62.25a.755.755,0,0,1-.75.75H6.75A.755.755,0,0,1,6,62.25V47.17a7.992,7.992,0,0,1,4.72-7.29C21.846,34.869,18.429,36.407,26,33l4,5h4l4-5c7.4,3.329,4.11,1.849,15.28,6.88A7.992,7.992,0,0,1,58,47.17Z" style="fill:#b28362"/><path d="M53.28,39.88,44,35.7v.08A17.992,17.992,0,0,1,32,52.75a66.3,66.3,0,0,1-6.69,1.7A3,3,0,0,0,23,57.37V63H57.25a.75.75,0,0,0,.75-.75V47.17A7.992,7.992,0,0,0,53.28,39.88Z" style="fill:#dbaa89"/><path d="M37.64,41.64,34,38H30l-3.64,3.64L29,46l-.86,4.84A18.027,18.027,0,0,0,32,52.75a18.027,18.027,0,0,0,3.86-1.91L35,46Z" style="fill:#343544"/><path d="M35.86,50.84A18.027,18.027,0,0,1,32,52.75a18.027,18.027,0,0,1-3.86-1.91L29,46h6Z" style="fill:#494a59"/><polygon points="30 38 25 43 20 35.7 26 33 30 38" style="fill:#d0dbf7"/><path d="M29,46l-.86,4.84A18,18,0,0,1,20,35.78V35.7L25,43l1.36-1.36Z" style="fill:#e6ecff"/><polygon points="44 35.7 39 43 34 38 38 33 44 35.7" style="fill:#d0dbf7"/><path d="M44,35.7v.08a18,18,0,0,1-8.14,15.06L35,46l2.64-4.36L39,43Z" style="fill:#e6ecff"/><path d="M49.75,51V63h-1.5V51a.75.75,0,0,1,1.5,0Z" style="fill:#b28362"/><path d="M15.75,51V63h-1.5V51a.75.75,0,0,1,1.5,0Z" style="fill:#896146"/><path d="M45,16.27A2,2,0,0,0,44,16H40l-.23,7H44a2.006,2.006,0,0,0,2-2V18A2,2,0,0,0,45,16.27Z" style="fill:#eac2b9"/><path d="M24,16H20a2,2,0,0,0-2,2v3a2.006,2.006,0,0,0,2,2h4.23Z" style="fill:#eac2b9"/><circle cx="27" cy="59" r="1" style="fill:#b28362"/><path d="M41,12v9a9,9,0,0,1-18,0V13c9,0,12.6-4,12.6-4C39,12,41,12,41,12Z" style="fill:#ffddd4"/></g></svg>