<svg xmlns="http://www.w3.org/2000/svg" viewBox="0 0 64 64"><title>Avatar-21</title><g id="Karate"><path d="M46,20v2a2,2,0,0,1-2,2H39.78A9.356,9.356,0,0,0,40,22V18h4A2.006,2.006,0,0,1,46,20Z" style="fill:#eac2b9"/><path d="M24.22,24H20a2,2,0,0,1-2-2V20a2.006,2.006,0,0,1,2-2h4v4A9.356,9.356,0,0,0,24.22,24Z" style="fill:#eac2b9"/><path d="M53.12,41.72c-14.8-6.693-10.981-4.965-15.12-6.84V28.71h-.01a8.979,8.979,0,0,1-11.98,0H26v6.17L10.88,41.72A10,10,0,0,0,5,50.83V62.25a.75.75,0,0,0,.75.75h52.5a.75.75,0,0,0,.75-.75V50.83A10,10,0,0,0,53.12,41.72Z" style="fill:#e6ecff"/><path d="M41.62,36.52l-3.05,4.1a16.329,16.329,0,0,1-13.14,0l-3.05-4.1L26,34.88V27.71h.01a8.979,8.979,0,0,0,11.98,0H38v7.17Z" style="fill:#eac2b9"/><path d="M15.75,51V63h-1.5V51a.75.75,0,0,1,1.5,0Z" style="fill:#d0dbf7"/><path d="M49.75,51V63h-1.5V51a.75.75,0,0,1,1.5,0Z" style="fill:#d0dbf7"/><path d="M23,12.848V22a9,9,0,0,0,9,9h0a9,9,0,0,0,9-9V15.5C31.106,15.217,27,10,27,10A5.744,5.744,0,0,1,23,12.848Z" style="fill:#ffddd4"/><path d="M46.99,11.86a8.535,8.535,0,0,1-1,3.45l-1.43,2.77A2.048,2.048,0,0,0,44,18H41V15.5C31.11,15.22,27,10,27,10a5.762,5.762,0,0,1-4,2.85V18H20a2,2,0,0,0-1,.27V8.81A4.806,4.806,0,0,1,23.81,4a2.952,2.952,0,0,1,.88-2.12A2.993,2.993,0,0,1,26.81,1h6.95a14.955,14.955,0,0,1,9.11,2.98C45.14,5.73,47.17,8.29,46.99,11.86Z" style="fill:#494a59"/><polygon points="28 63 46.114 38.546 41.62 36.513 22 63 28 63" style="fill:#d0dbf7"/><polygon points="29 53.55 17.89 38.55 22.38 36.51 32 49.5 29 53.55" style="fill:#bbcaea"/><path d="M38.57,40.62,32,49.5l-6.57-8.88a16.329,16.329,0,0,0,13.14,0Z" style="fill:#494a59"/></g></svg>