<svg xmlns="http://www.w3.org/2000/svg" viewBox="0 0 64 64"><title>Avatar-32</title><g id="Business_Man-2" data-name="Business Man"><path d="M18,19.542V8a4,4,0,0,1,4-4,3,3,0,0,1,3-3h8.81a16.817,16.817,0,0,1,9.77,2.98c2.43,1.75,4.6,4.31,4.41,7.88-.125,2.3-.939,3.681-3.091,7.556Z" style="fill:#494a59"/><path d="M53.31,41.03C44.011,37.767,47.274,38.914,39,36l-7,6-7-6c-8.234,2.95-4.96,1.78-14.36,5.13A10,10,0,0,0,4,50.55v11.7a.75.75,0,0,0,.75.75h54.5a.75.75,0,0,0,.75-.75V50.46A9.99,9.99,0,0,0,53.31,41.03Z" style="fill:#e6ecff"/><path d="M39,28.14V37l-7,6-7-6V28.14a10,10,0,0,0,14,0Z" style="fill:#eac2b9"/><path d="M47,20v2a2,2,0,0,1-2,2H40.8a10.048,10.048,0,0,0,.2-2V18h4A2.006,2.006,0,0,1,47,20Z" style="fill:#eac2b9"/><path d="M23.2,24H19a2,2,0,0,1-2-2V20a2.006,2.006,0,0,1,2-2h4v4A10.048,10.048,0,0,0,23.2,24Z" style="fill:#eac2b9"/><path d="M42,15v7A10,10,0,0,1,32,32h0A10,10,0,0,1,22,22V13s2.222.143,6-3C28,10,32,15,42,15Z" style="fill:#ffddd4"/><polygon points="31.25 41.357 31.25 63 32.75 63 32.75 41.357 32 42 31.25 41.357" style="fill:#bbcaea"/><circle cx="35" cy="53" r="1" style="fill:#d0dbf7"/><circle cx="35" cy="49" r="1" style="fill:#d0dbf7"/><circle cx="35" cy="57" r="1" style="fill:#d0dbf7"/><circle cx="35" cy="61" r="1" style="fill:#d0dbf7"/><path d="M45,54.75H40a.75.75,0,0,1,0-1.5h5a.75.75,0,0,1,0,1.5Z" style="fill:#d0dbf7"/><path d="M49.75,52V63h-1.5V52a.75.75,0,0,1,1.5,0Z" style="fill:#d0dbf7"/><path d="M15.75,52V63h-1.5V52a.75.75,0,0,1,1.5,0Z" style="fill:#d0dbf7"/><polygon points="32 42 26 46 18.3 38.4 25 36 32 42" style="fill:#d0dbf7"/><polygon points="45.73 38.37 38 46 32 42 39 36 45.73 38.37" style="fill:#d0dbf7"/></g></svg>