<svg xmlns="http://www.w3.org/2000/svg" viewBox="0 0 64 64"><title>Avatar-15</title><g id="Hat_Man" data-name="Hat Man"><path d="M37,1H27a7,7,0,0,0-7,7v6H44V8A7,7,0,0,0,37,1Z" style="fill:#ffb64d"/><path d="M38,30.71V39a6.834,6.834,0,0,1-12,0V30.71h.01a8.979,8.979,0,0,0,11.98,0Z" style="fill:#eac2b9"/><path d="M8,56v6.25a.75.75,0,0,0,.75.75H18V56Z" style="fill:#ffddd4"/><path d="M46,56v7h9.25a.75.75,0,0,0,.75-.75V56Z" style="fill:#ffddd4"/><path d="M51.09,42.26,38,38a6.834,6.834,0,0,1-12,0L12.91,42.26A9.984,9.984,0,0,0,6,51.77v4.48a.75.75,0,0,0,.75.75H17v6H47V57H57.25a.75.75,0,0,0,.75-.75V51.77A9.984,9.984,0,0,0,51.09,42.26Z" style="fill:#ffb64d"/><rect x="40" y="16" width="4" height="6" style="fill:#494a59"/><rect x="20" y="16" width="4" height="6" style="fill:#494a59"/><path d="M44,21H41l-.223,6H44a2,2,0,0,0,2-2V23A2,2,0,0,0,44,21Z" style="fill:#eac2b9"/><path d="M23,21H20a2,2,0,0,0-2,2v2a2,2,0,0,0,2,2h3.223Z" style="fill:#eac2b9"/><path d="M17,52v5H15.5V52A.75.75,0,0,1,17,52Z" style="fill:#ea972a"/><path d="M48.5,52v5H47V52a.75.75,0,0,1,1.5,0Z" style="fill:#ea972a"/><path d="M23,16v9a9,9,0,0,0,18,0V16Z" style="fill:#ffddd4"/><path d="M13,13a4,4,0,0,0,4,4H44V13Z" style="fill:#ea972a"/><path d="M35,7.75H29a.75.75,0,0,1,0-1.5h6a.75.75,0,0,1,0,1.5Z" style="fill:#ea972a"/></g></svg>