<svg xmlns="http://www.w3.org/2000/svg" viewBox="0 0 64 64"><title>Avatar-1</title><g id="Man"><path d="M45,8v9.27A2,2,0,0,0,44,17H41V13s-2,0-5.4-3c0,0-3.6,4-12.6,4v3H20a2,2,0,0,0-1,.27V8a7,7,0,0,1,7-7H38a3,3,0,0,1,3,3A4,4,0,0,1,45,8Z" style="fill:#494a59"/><path d="M45,16.27A2,2,0,0,0,44,16H40v5a9.356,9.356,0,0,1-.22,2H44a2.006,2.006,0,0,0,2-2V18A2,2,0,0,0,45,16.27Z" style="fill:#eac2b9"/><path d="M24,21V16H20a2,2,0,0,0-2,2v3a2.006,2.006,0,0,0,2,2h4.23A8.759,8.759,0,0,1,24,21Z" style="fill:#eac2b9"/><path d="M51.28,39.29C42.434,35.107,45.464,36.541,38,33l-4,5H30l-4-5c-7.463,3.541-4.435,2.107-13.28,6.29A10.009,10.009,0,0,0,7,48.33V62.25a.75.75,0,0,0,.75.75h48.5a.75.75,0,0,0,.75-.75V48.33A10.009,10.009,0,0,0,51.28,39.29Z" style="fill:#e6ecff"/><polygon points="38 63 26 63 29 47 35 47 38 63" style="fill:#494a59"/><path d="M38,26.7V34l-4,5H30l-4-5V26.7a8.976,8.976,0,0,0,12,0Z" style="fill:#eac2b9"/><path d="M48.75,51V63h-1.5V51a.75.75,0,0,1,1.5,0Z" style="fill:#d0dbf7"/><path d="M16.75,51V63h-1.5V51a.75.75,0,0,1,1.5,0Z" style="fill:#d0dbf7"/><path d="M35.6,9S32,13,23,13v8a9,9,0,0,0,18,0V12S39,12,35.6,9Z" style="fill:#ffddd4"/><polygon points="30 38 26.12 41.24 24 43 19.93 35.88 26 33 30 38" style="fill:#d0dbf7"/><polygon points="44.07 35.88 40 43 37.88 41.24 34 38 38 33 44.07 35.88" style="fill:#d0dbf7"/><polygon points="37.88 41.24 35 47 29 47 26.12 41.24 30 38 34 38 37.88 41.24" style="fill:#343544"/></g></svg>