<svg xmlns="http://www.w3.org/2000/svg" viewBox="0 0 64 64"><title>Avatar-34</title><g id="Man_camera" data-name="Man camera"><path d="M19,20.5V8.81A4.806,4.806,0,0,1,23.81,4a2.952,2.952,0,0,1,.88-2.12A2.993,2.993,0,0,1,26.81,1h6.95a14.955,14.955,0,0,1,9.11,2.98c2.27,1.75,4.3,4.31,4.12,7.88a8.535,8.535,0,0,1-1,3.45l-2.673,5.178Z" style="fill:#494a59"/><path d="M46,20v2a2,2,0,0,1-2,2H39.78A9.356,9.356,0,0,0,40,22V18h4A2.006,2.006,0,0,1,46,20Z" style="fill:#eac2b9"/><path d="M24.22,24H20a2,2,0,0,1-2-2V20a2.006,2.006,0,0,1,2-2h4v4A9.356,9.356,0,0,0,24.22,24Z" style="fill:#eac2b9"/><path d="M38,27.71V36a6.834,6.834,0,0,1-12,0V27.71h.01a8.979,8.979,0,0,0,11.98,0Z" style="fill:#eac2b9"/><path d="M8,55v7.25a.75.75,0,0,0,.75.75H18V55Z" style="fill:#ffddd4"/><path d="M46,55v8h9.25a.75.75,0,0,0,.75-.75V55Z" style="fill:#ffddd4"/><path d="M51.91,40.91,38,35a6.834,6.834,0,0,1-12,0L12.09,40.91A10.016,10.016,0,0,0,6,50.12v5.13a.75.75,0,0,0,.75.75H17v7H47V56H57.25a.75.75,0,0,0,.75-.75V50.12A10.016,10.016,0,0,0,51.91,40.91Z" style="fill:#ffb64d"/><path d="M17,49v7H15.5V49A.75.75,0,0,1,17,49Z" style="fill:#ea972a"/><path d="M48.5,49v7H47V49a.75.75,0,0,1,1.5,0Z" style="fill:#ea972a"/><path d="M23,12.848V22a9,9,0,0,0,9,9h0a9,9,0,0,0,9-9V15.5C31.106,15.217,27,10,27,10A5.744,5.744,0,0,1,23,12.848Z" style="fill:#ffddd4"/><path d="M43.34,37.27,35.29,51.84a.749.749,0,0,1-.66.39.677.677,0,0,1-.36-.1.75.75,0,0,1-.29-1.02l7.97-14.43Z" style="fill:#376cfb"/><path d="M29.9,52.44a.768.768,0,0,1-.36.09.76.76,0,0,1-.66-.38L20.66,37.27l1.39-.59,8.14,14.74A.753.753,0,0,1,29.9,52.44Z" style="fill:#376cfb"/><polygon points="37 52 36 49 28 49 27 52 23 53 23 63 41 63 41 53 37 52" style="fill:#4294ff"/><circle cx="32" cy="57" r="4" style="fill:#376cfb"/></g></svg>